<svg width="81" height="137" viewBox="0 0 81 137" fill="none" xmlns="http://www.w3.org/2000/svg">
<path d="M9.43146 134.251L9.07394 134.601L9.43144 134.251L2.50541 127.168C-0.163984 124.438 -0.169144 120.008 2.49401 117.272L49.556 68.9138L49.8954 68.5651L49.556 68.2164L2.49401 19.8586C-0.169144 17.1221 -0.163984 12.6929 2.50541 9.9628L9.43144 2.87936C12.0993 0.150878 16.4198 0.150906 19.0873 2.87934L19.0873 2.87936L78.4699 63.6115L78.8274 63.262L78.4699 63.6116C81.1438 66.346 81.1439 70.7843 78.4702 73.519L19.0873 134.251C16.4194 136.98 12.099 136.98 9.43146 134.251Z" stroke="#FF0000"/>
</svg>
